# xmcd
#
# Track frame offsets: 
#        182
#        17127
#        32680
#        61272
#        75235
#        96962
#        120702
#        158640
#        165750
#
# Disc length: 2477 seconds
#
# Revision: 3
# Processed by: cddbd v1.5.2PL0 Copyright (c) Steve Scherf et al.
# Submitted via: ExactAudioCopy v0.99pb4
#
DISCID=5909ab09
DTITLE=Various Artist - American Folk Blues Festival '85
DYEAR=1985
DGENRE=Blues
TTITLE0=Walkin' Blues
TTITLE1=Fanny Mae
TTITLE2=I Can't Quit You Baby
TTITLE3=Smokey Mountain Blues
TTITLE4=Hold It Right There
TTITLE5=From Boogie To Funk
TTITLE6=Gettin' Closer
TTITLE7=The Young Blues Thrillers' Theme
TTITLE8=Two Lovers In One
EXTD=
EXTT0=
EXTT1=
EXTT2=
EXTT3=
EXTT4=
EXTT5=
EXTT6=
EXTT7=
EXTT8=
PLAYORDER=
